<?xml version="1.0" encoding="UTF-8" standalone="no"?>
<!-- Created with Inkscape (http://www.inkscape.org/) -->

<svg
   width="90.834641mm"
   height="81.362503mm"
   viewBox="0 0 90.834641 81.362503"
   version="1.1"
   id="svg1"
   xml:space="preserve"
   xmlns:xlink="http://www.w3.org/1999/xlink"
   xmlns="http://www.w3.org/2000/svg"
   xmlns:svg="http://www.w3.org/2000/svg"><defs
     id="defs1"><clipPath
       id="clip0"><rect
         x="537"
         y="260"
         width="1890"
         height="1889"
         id="rect1" /></clipPath><linearGradient
       id="linearGradient6540"><stop
         id="stop6536"
         offset="0"
         style="stop-color:#e3ffe1;stop-opacity:1" /><stop
         id="stop6538"
         offset="1"
         style="stop-color:#f1fff1;stop-opacity:1" /></linearGradient><linearGradient
       id="linearGradient4738"><stop
         style="stop-color:#abe5a8;stop-opacity:1"
         offset="0"
         id="stop4734" /><stop
         style="stop-color:#d3fbd2;stop-opacity:1"
         offset="1"
         id="stop4736" /></linearGradient><linearGradient
       id="linearGradient4704"><stop
         style="stop-color:#ffe1fc;stop-opacity:1"
         offset="0"
         id="stop4700" /><stop
         style="stop-color:#fff1fd;stop-opacity:0.9137255"
         offset="1"
         id="stop4702" /></linearGradient><linearGradient
       xlink:href="#linearGradient4704"
       id="linearGradient4706"
       x1="340.75635"
       y1="345.34827"
       x2="279.98267"
       y2="344.81253"
       gradientUnits="userSpaceOnUse" /><linearGradient
       xlink:href="#linearGradient4738"
       id="linearGradient6523"
       gradientUnits="userSpaceOnUse"
       gradientTransform="matrix(1.1081546,0,0,1.1081547,-12.496384,3.532221)"
       x1="98.700104"
       y1="85.206047"
       x2="58.95752"
       y2="85.099136" /><linearGradient
       xlink:href="#linearGradient6540"
       id="linearGradient6530"
       gradientUnits="userSpaceOnUse"
       x1="340.75635"
       y1="345.34827"
       x2="279.98267"
       y2="344.81253"
       gradientTransform="matrix(0.26694157,0,0,0.27196646,-0.68686002,-2.3977742)" /><clipPath
       id="clip0-8"><rect
         x="537"
         y="260"
         width="1890"
         height="1889"
         id="rect1-8" /></clipPath></defs><g
     id="layer1"
     transform="translate(-5.8197605,-146.57267)"><g
       id="g3"
       transform="matrix(2.1946888,0,0,2.1946888,5.8197605,146.52371)"><g
         id="layer2"
         style="display:inline"
         transform="translate(-60.192707,-72.712536)"><path
           style="fill:none;stroke:#effff0;stroke-width:0.264583px;stroke-linecap:butt;stroke-linejoin:miter;stroke-opacity:1"
           d="M 96.961247,73.070926 97.616635,97.92283"
           id="path4526" /><path
           style="fill:none;stroke:#d2fcd1;stroke-width:0.269451px;stroke-linecap:butt;stroke-linejoin:miter;stroke-opacity:1"
           d="M 64.916263,73.48839 63.832805,98.441743"
           id="path4528" /><path
           style="fill:none;stroke:#cdfccb;stroke-width:10.365;stroke-linecap:butt;stroke-linejoin:miter;stroke-miterlimit:4;stroke-dasharray:none;stroke-opacity:1"
           d="m 63.256284,98.394892 35.453303,0.23386"
           id="path4531" /></g><g
         id="layer1-9"
         style="display:inline"
         transform="translate(-60.192707,-72.712536)"><path
           style="fill:none;stroke:none;stroke-width:0;stroke-linecap:butt;stroke-linejoin:miter;stroke-miterlimit:4;stroke-dasharray:none;stroke-opacity:1"
           d="m 64.811586,72.859982 c 0,0 5.184146,1.322966 15.928969,1.322966 10.744821,0 16.308392,-1.345883 16.308392,-1.345883"
           id="path4521" /><path
           style="fill:none;stroke:none;stroke-width:0;stroke-linecap:butt;stroke-linejoin:miter;stroke-miterlimit:4;stroke-dasharray:none;stroke-opacity:1"
           d="m 63.832372,97.529363 c 0,0 3.824594,2.037309 17.2849,2.037309 13.460303,0 16.576459,-1.8792 16.576459,-1.8792"
           id="path4521-6" /><path
           style="fill:none;stroke:none;stroke-width:0;stroke-linecap:butt;stroke-linejoin:miter;stroke-miterlimit:4;stroke-dasharray:none;stroke-opacity:1"
           d="M 63.832372,97.529363 64.811586,72.859981"
           id="path4538" /><path
           style="fill:none;stroke:none;stroke-width:0;stroke-linecap:butt;stroke-linejoin:miter;stroke-miterlimit:4;stroke-dasharray:none;stroke-opacity:1"
           d="M 60.94866,82.97098 64.811586,72.859981"
           id="path4542" /><path
           style="fill:none;stroke:none;stroke-width:0;stroke-linecap:butt;stroke-linejoin:miter;stroke-miterlimit:4;stroke-dasharray:none;stroke-opacity:1"
           d="M 60.192707,109.33482 60.94866,82.97098"
           id="path4544" /><path
           style="fill:none;stroke:none;stroke-width:0;stroke-linecap:butt;stroke-linejoin:miter;stroke-miterlimit:4;stroke-dasharray:none;stroke-opacity:1"
           d="M 63.832371,97.52936 60.192707,109.33482 101.5811,109.8073 97.693731,97.687472"
           id="path4546" /><path
           style="fill:#e3ffe4;fill-opacity:1;stroke:none;stroke-width:0.817509;stroke-miterlimit:4;stroke-dasharray:none;stroke-opacity:1"
           d="m 372.3454,414.32679 c -5.84375,-0.0672 -21.875,-0.25037 -35.625,-0.40714 -13.75,-0.15677 -35.00446,-0.40033 -47.23214,-0.54123 -12.22768,-0.1409 -30.83036,-0.35104 -41.33929,-0.46697 -10.50892,-0.11593 -19.14013,-0.23882 -19.18045,-0.27308 -0.0403,-0.0343 0.0696,-0.22027 0.24438,-0.41334 0.32333,-0.35728 0.26658,-1.22157 -0.0949,-1.44495 -0.23797,-0.14708 -0.24942,-0.10826 6.36603,-21.58792 4.86025,-15.78069 6.11072,-19.65132 6.32563,-19.5799 0.14732,0.0489 1.2166,0.41593 2.37618,0.8155 14.58387,5.0253 45.53778,7.46205 79.32025,6.24424 20.04791,-0.7227 36.73148,-3.03191 44.391,-6.14424 l 1.04768,-0.42572 0.55215,1.72699 c 0.30369,0.94985 3.4849,10.87162 7.06936,22.0484 3.58446,11.17678 6.49175,20.37767 6.46065,20.44643 -0.0311,0.0688 -4.83781,0.0701 -10.68156,0.003 z"
           id="path4582"
           transform="scale(0.26458333)" /><path
           style="fill:url(#linearGradient6530);fill-opacity:1;stroke:none;stroke-width:0.220271;stroke-miterlimit:4;stroke-dasharray:none;stroke-opacity:1"
           d="m 77.185442,99.702035 c -4.586875,-0.153503 -8.86226,-0.65982 -11.464188,-1.357656 -0.681477,-0.182773 -1.676921,-0.515216 -1.77854,-0.593974 -0.06948,-0.05385 -0.03485,-1.123483 0.396603,-12.248924 0.405845,-10.465191 0.484008,-12.220849 0.552425,-12.40847 0.04383,-0.120201 0.08139,-0.256777 0.08347,-0.303504 0,0 0.04068,-0.0359 0.08576,-0.02289 0.284691,0.08222 1.596846,0.275266 2.590847,0.419533 8.102122,1.175945 20.263945,1.070397 27.932834,-0.242415 0.471532,-0.08072 0.943447,-0.167036 1.0487,-0.191818 0.289135,-0.01846 0.28831,-0.05051 0.415594,0.08515 0.06052,0.147561 0.09286,2.132944 0.351356,12.22077 0.16915,6.601222 0.301897,12.196595 0.294994,12.434166 l -0.01254,0.431948 -0.417853,0.163832 c -1.790641,0.702076 -5.495275,1.271063 -9.902301,1.520875 -2.499793,0.1417 -7.391972,0.186588 -10.177148,0.09338 z"
           id="path4584" /><path
           style="opacity:1;fill:#effff0;fill-opacity:1;stroke:none;stroke-width:0.327955;stroke-miterlimit:4;stroke-dasharray:none;stroke-opacity:1"
           d="M 99.460261,103.8782 97.643201,98.077464 97.353854,85.97 c -0.15914,-6.659103 -0.305349,-12.348756 -0.324907,-12.643672 -0.01957,-0.29491 -0.0088,-0.518633 0.02,-0.489263 0.02885,0.02936 0.04975,0.09688 0.108128,0.199549 0.05844,0.09441 0.05237,0.0669 0.112519,0.184623 0.07969,0.156836 0.413147,0.889893 1.570782,4.165989 l 1.897384,5.369567 0.29712,12.176346 c 0.38928,14.679351 0.39066,14.745801 0.30145,14.745801 -0.0324,0 -0.87666,-2.61034 -1.876053,-5.80074 z"
           id="path4712" /><path
           style="opacity:1;fill:#d2fcd1;fill-opacity:1;stroke:none;stroke-width:0.817509;stroke-miterlimit:4;stroke-dasharray:none;stroke-opacity:1"
           d="m 375.66664,414.40615 c -4.18617,-0.0498 -64.30557,-0.73313 -114.64286,-1.303 -17.43303,-0.19736 -31.94543,-0.37811 -32.24977,-0.40167 l -0.55334,-0.0428 2.0317,-6.60714 c 7.57142,-24.62252 11.18433,-36.26729 11.28717,-36.37971 0.0653,-0.0713 1.18639,0.22974 2.4914,0.66907 9.19553,3.09562 22.11832,4.96805 42.61784,6.17506 4.22793,0.24893 31.32481,0.36129 36.51786,0.15141 20.80315,-0.84075 37.1519,-3.09374 44.69712,-6.15964 0.5925,-0.24076 1.09386,-0.41779 1.11413,-0.3934 0.0203,0.0244 0.56179,1.69167 1.20339,3.70506 0.6416,2.0134 3.82578,11.9527 7.07595,22.08734 3.25018,10.13464 5.90941,18.47169 5.90941,18.52678 0,0.0551 -0.82366,0.0818 -1.83036,0.0593 -1.00669,-0.0225 -3.55803,-0.0615 -5.66964,-0.0866 z"
           id="path4724"
           transform="scale(0.26458333)" /><path
           id="path6487"
           d="m 64.811586,72.859982 c 0,0 5.184146,1.322966 15.928969,1.322966 10.744821,0 16.308392,-1.345883 16.308392,-1.345883"
           style="fill:none;stroke:none;stroke-width:0;stroke-linecap:butt;stroke-linejoin:miter;stroke-miterlimit:4;stroke-dasharray:none;stroke-opacity:1" /><path
           id="path6489"
           d="m 63.832372,97.529363 c 0,0 3.824594,2.037309 17.2849,2.037309 13.460303,0 16.576459,-1.8792 16.576459,-1.8792"
           style="fill:none;stroke:none;stroke-width:0;stroke-linecap:butt;stroke-linejoin:miter;stroke-miterlimit:4;stroke-dasharray:none;stroke-opacity:1" /><path
           id="path6491"
           d="M 63.832372,97.529363 64.811586,72.859981"
           style="fill:none;stroke:none;stroke-width:0;stroke-linecap:butt;stroke-linejoin:miter;stroke-miterlimit:4;stroke-dasharray:none;stroke-opacity:1" /><path
           id="path6495"
           d="M 60.94866,82.97098 64.811586,72.859981"
           style="fill:none;stroke:none;stroke-width:0;stroke-linecap:butt;stroke-linejoin:miter;stroke-miterlimit:4;stroke-dasharray:none;stroke-opacity:1" /><path
           id="path6497"
           d="M 60.192707,109.33482 60.94866,82.97098"
           style="fill:none;stroke:none;stroke-width:0;stroke-linecap:butt;stroke-linejoin:miter;stroke-miterlimit:4;stroke-dasharray:none;stroke-opacity:1" /><path
           id="path6499"
           d="M 63.832371,97.52936 60.192707,109.33482 101.5811,109.8073 97.693731,97.687472"
           style="fill:none;stroke:none;stroke-width:0;stroke-linecap:butt;stroke-linejoin:miter;stroke-miterlimit:4;stroke-dasharray:none;stroke-opacity:1" /><path
           id="path6503"
           d="m 372.3454,414.32679 c -5.84375,-0.0672 -21.875,-0.25037 -35.625,-0.40714 -13.75,-0.15677 -35.00446,-0.40033 -47.23214,-0.54123 -12.22768,-0.1409 -30.83036,-0.35104 -41.33929,-0.46697 -10.50892,-0.11593 -19.14013,-0.23882 -19.18045,-0.27308 -0.0403,-0.0343 0.0696,-0.22027 0.24438,-0.41334 0.32333,-0.35728 0.26658,-1.22157 -0.0949,-1.44495 -0.23797,-0.14708 -0.24942,-0.10826 6.36603,-21.58792 4.86025,-15.78069 6.11072,-19.65132 6.32563,-19.5799 0.14732,0.0489 1.2166,0.41593 2.37618,0.8155 14.58387,5.0253 45.53778,7.46205 79.32025,6.24424 20.04791,-0.7227 36.73148,-3.03191 44.391,-6.14424 l 1.04768,-0.42572 0.55215,1.72699 c 0.30369,0.94985 3.4849,10.87162 7.06936,22.0484 3.58446,11.17678 6.49175,20.37767 6.46065,20.44643 -0.0311,0.0688 -4.83781,0.0701 -10.68156,0.003 z"
           style="fill:#e3ffe4;fill-opacity:1;stroke:none;stroke-width:0.817509;stroke-miterlimit:4;stroke-dasharray:none;stroke-opacity:1"
           transform="scale(0.26458333)" /><path
           id="path6513"
           d="m 99.395131,109.64485 c -1.107591,-0.0132 -17.060954,0.20292 -30.379362,0.0516 -4.612489,-0.0524 -8.452228,-0.0536 -8.532752,-0.0598 -0.239779,0.0496 -0.120301,-0.43497 -0.120301,-0.43497 l 0.558225,-1.77483 c 2.003271,-6.53717 2.959187,-9.628799 2.986397,-9.658646 0.01728,-0.01893 0.313899,0.06099 0.659183,0.177635 2.432984,0.821872 5.852138,1.318994 11.27597,1.63945 1.11864,0.06609 8.288022,0.09592 9.662017,0.0402 5.504166,-0.223216 9.829773,-0.821374 11.826113,-1.635356 0.156765,-0.06392 0.289417,-0.110921 0.29478,-0.104445 0.0054,0.0065 0.14864,0.44913 0.318397,0.983675 0.169756,0.534549 1.012237,3.173387 1.872178,5.864087 0.859944,2.6907 1.563534,4.90415 1.563534,4.91877 0,0.0146 -0.21793,0.0217 -0.48429,0.0157 -0.26635,-0.006 -0.941391,-0.0164 -1.500087,-0.023 z"
           style="opacity:1;fill:#cdfccb;fill-opacity:1;stroke:none;stroke-width:0.216672;stroke-miterlimit:4;stroke-dasharray:none;stroke-opacity:1" /><g
           aria-label="K"
           transform="scale(1.0675122,0.93675744)"
           style="font-style:normal;font-variant:normal;font-weight:normal;font-stretch:normal;font-size:27.6511px;line-height:1.25;font-family:'MS UI Gothic';-inkscape-font-specification:'MS UI Gothic, Normal';font-variant-ligatures:normal;font-variant-caps:normal;font-variant-numeric:normal;font-feature-settings:normal;text-align:start;letter-spacing:0px;word-spacing:0px;writing-mode:lr-tb;text-anchor:start;fill:url(#linearGradient6523);fill-opacity:1;stroke:none;stroke-width:0.691277;stroke-opacity:0.913725"
           id="text6517" /><path
           transform="translate(1.3125e-6)"
           id="path6511"
           d="m 61.126331,82.668319 0.160352,-0.423396 c 0.247933,-0.654634 3.571982,-9.127431 3.625023,-9.239951 0.02957,-0.06275 0.03672,0.195265 0.01928,0.697354 -0.03831,1.102454 -0.659018,16.457 -0.838668,20.746307 l -0.147079,3.51168 -1.767435,5.578847 c -0.972089,3.06834 -1.776787,5.60126 -1.788214,5.62863 -0.01144,0.0275 -0.02268,0.005 -0.02503,-0.0498 0.260237,-9.322521 0.470329,-16.424407 0.761771,-26.449671 z"
           style="display:inline;opacity:1;fill:#d2fcd1;fill-opacity:1;stroke:none;stroke-width:0.2309;stroke-miterlimit:4;stroke-dasharray:none;stroke-opacity:1" /></g></g><g
       style="overflow:hidden"
       id="g4"
       transform="matrix(0.02639828,0,0,0.02639828,25.472308,152.26145)"><g
         clip-path="url(#clip0-8)"
         transform="translate(-537,-260)"
         id="g2"><path
           d="m 1837.93,1692.48 h 483.76 l -26.46,58.33 c -92.05,187.39 -229.92,334.36 -405.95,381.76 l -51.35,9.78 z m -622.77,0 h 540.25 v 455.97 l -7.51,0.01 c -49.5,-1.77 -101.34,-10.94 -155.39,-28.46 -117.78,-38.18 -118.34,-38.83 -229.17,-0.32 -44.27,15.39 -87.12,24.64 -128.46,28.39 l -19.72,0.93 z m -569.988,0 h 487.468 v 453.13 l -17.14,-2.21 C 920.397,2109.46 767.041,1948.17 667.385,1742.05 Z M 1837.93,1060.1 h 583.36 l 4.24,48.97 c 7.1,144.48 -11.69,298.76 -53.81,443.05 l -18.59,57.82 h -515.2 z m -622.77,0 h 540.25 v 549.84 h -540.25 z m -672.404,0 h 589.884 v 549.84 H 612.93 l -20.414,-63.27 C 545.235,1385.93 527.036,1215 542.245,1063.72 Z M 916.708,609.249 c 50.808,-1.055 107.072,7.218 169.012,26.288 l 46.92,16.143 V 977.555 H 555.492 L 568.75,920.1 C 619.364,740.283 731.933,613.085 916.708,609.249 Z M 1755.41,542.462 V 977.555 H 1215.16 V 687.892 l 19.59,9.396 c 35.29,18.048 72.03,39.071 110.26,63.253 129.84,-93.136 246.92,-157.724 351.78,-198.197 z m 219.95,-33.631 c 240.21,9.844 378.25,192.623 429.06,432.848 l 6,35.876 H 1837.93 V 520.868 l 7.08,-1.703 c 46.41,-8.735 89.83,-11.995 130.35,-10.334 z M 1047.24,260 h 274.34 c 19.87,0 32.41,7.679 37.63,23.037 3.84,11.293 -8.62,142.74 -37.39,394.342 -195.38,-252.054 -294.76,-383.049 -298.13,-392.987 -2.61,-7.679 -1.07,-13.777 4.62,-18.294 4.94,-4.066 11.25,-6.098 18.93,-6.098 z"
           fill="#24a148"
           fill-rule="evenodd"
           id="path1"
           style="fill:#ffffff" /><path
           id="path2"
           style="fill:#e3ffe1;fill-opacity:1"
           d="M 814.68103 1148.0026 L 713.65094 1400.0787 C 712.88494 1402.3787 712.02295 1404.6693 711.06695 1406.9693 C 710.10995 1409.2693 709.06326 1411.3723 707.91526 1413.2923 C 707.53226 1414.4323 707.06024 1415.5876 706.48624 1416.7376 C 705.91224 1417.8876 705.42064 1418.8356 705.03764 1419.5956 C 704.27164 1420.7456 703.71755 1421.8069 703.33455 1422.7669 C 702.95155 1423.7269 702.37689 1424.7686 701.61189 1425.9186 C 701.22889 1426.2986 700.94156 1426.6835 700.75056 1427.0735 C 700.55956 1427.4535 700.45693 1427.8385 700.45693 1428.2285 C 700.45693 1428.6085 700.35429 1428.8802 700.16329 1429.0702 C 699.97129 1429.2602 699.88923 1429.3639 699.88923 1429.3639 C 699.50623 1429.7539 699.30196 1430.0252 699.30196 1430.2252 L 699.30196 1431.0865 C 698.91896 1431.8465 698.54957 1432.6169 698.16657 1433.3769 C 697.78357 1434.1469 697.39361 1434.9268 697.01161 1435.6868 C 696.62861 1436.8368 696.23864 1437.7849 695.85664 1438.5449 C 695.47364 1439.3149 695.10325 1440.0848 694.72125 1440.8548 C 693.95525 1442.3848 693.17632 1444.0092 692.41132 1445.7292 C 691.64532 1447.4492 690.88597 1449.2612 690.12097 1451.1712 C 686.67697 1458.4512 683.04332 1464.3951 679.21732 1468.9851 C 675.39032 1473.5851 671.3677 1476.8333 667.1587 1478.7533 C 663.3317 1480.2833 658.83705 1481.4386 653.67105 1482.1986 C 648.50505 1482.9686 642.86109 1483.334 636.73809 1483.334 L 635.30906 1483.334 L 633.86046 1483.334 L 632.43144 1483.334 C 631.85744 1483.334 631.38541 1483.1463 631.00241 1482.7663 L 631.00241 1531.0008 L 801.48702 1531.0008 L 801.48702 1482.7663 L 784.82812 1483.9017 C 778.32212 1483.9017 772.88242 1483.714 768.48242 1483.334 C 764.08142 1482.954 760.92179 1482.3714 759.00779 1481.6114 C 756.71179 1480.8414 755.09045 1479.4147 754.13345 1477.3047 C 753.17745 1475.2047 752.68485 1472.8005 752.68485 1470.1205 C 752.68485 1468.2105 752.88912 1466.1071 753.27212 1463.8171 C 753.65512 1461.5171 754.02551 1459.2164 754.40751 1456.9264 C 755.17351 1454.6264 755.8498 1452.3258 756.4238 1450.0358 C 756.9978 1447.7358 757.85979 1445.4352 759.00779 1443.1452 C 759.00779 1442.3752 759.09085 1441.8125 759.28185 1441.4225 C 759.47385 1441.0425 759.76118 1440.4698 760.14318 1439.6998 C 760.14318 1439.3198 760.24582 1438.8312 760.43682 1438.2512 C 760.62882 1437.6812 760.91615 1437.2022 761.29815 1436.8222 C 761.68115 1435.6722 762.15317 1434.5269 762.72717 1433.3769 C 763.30217 1432.2369 763.79377 1431.0816 764.17577 1429.9316 C 764.94177 1428.4016 765.59849 1426.8713 766.17249 1425.3313 C 766.74749 1423.8013 767.23809 1422.2806 767.62109 1420.7506 C 768.00309 1419.9906 768.37448 1419.2107 768.75648 1418.4407 C 769.13948 1417.6807 769.52945 1416.7326 769.91145 1415.5826 C 769.91145 1414.8226 770.09714 1414.0523 770.47914 1413.2923 C 770.86214 1412.5223 771.25111 1411.5546 771.63411 1410.4146 L 914.55616 1410.4146 L 914.55616 1411.5696 C 915.32116 1413.1096 915.99845 1414.5362 916.57245 1415.8762 C 917.14645 1417.2162 917.80417 1418.8406 918.56917 1420.7506 C 919.33417 1422.2806 920.1141 1423.9049 920.8791 1425.6249 C 921.6441 1427.3449 922.40446 1429.1665 923.16946 1431.0865 C 923.55246 1432.2365 923.94142 1433.1942 924.32442 1433.9642 C 924.70742 1434.7242 925.07681 1435.4845 925.45981 1436.2545 C 925.84281 1437.0145 926.23178 1437.7849 926.61478 1438.5449 C 926.99778 1439.3149 927.38674 1440.0848 927.76974 1440.8548 C 928.53474 1443.5348 929.39673 1446.1168 930.35373 1448.6068 C 931.31073 1451.0968 932.15315 1453.4715 932.91815 1455.7715 C 933.68315 1458.4515 934.25781 1460.8458 934.64081 1462.9558 C 935.02381 1465.0558 935.22808 1467.0751 935.22808 1468.9851 C 935.22808 1471.6651 934.55078 1473.9557 933.21178 1475.8757 C 931.87278 1477.7857 929.86147 1479.326 927.18247 1480.476 C 924.88647 1481.246 922.21744 1481.8927 919.15644 1482.4727 C 916.09444 1483.0427 912.46179 1483.334 908.25279 1483.334 L 906.80419 1483.334 L 905.37516 1483.334 L 903.6525 1483.334 C 903.2695 1483.334 902.69484 1483.1463 901.92984 1482.7663 L 881.84519 1482.7663 L 881.84519 1531.0008 L 1094.2218 1531.0008 L 1094.2218 1483.9017 C 1085.0418 1483.9017 1077.2954 1483.3486 1070.9854 1482.1986 C 1064.6654 1481.0486 1059.3979 1479.1234 1055.1879 1476.4434 C 1051.3579 1474.1434 1047.6206 1470.9047 1043.9906 1466.6947 C 1040.3506 1462.4847 1037.0082 1457.4985 1033.9482 1451.7585 C 1033.5682 1450.9885 1033.0892 1450.1345 1032.5192 1449.1745 C 1031.9392 1448.2245 1031.4506 1447.1728 1031.0706 1446.0228 C 1030.3106 1444.8728 1029.7475 1443.7275 1029.3675 1442.5775 C 1028.9875 1441.4275 1028.4049 1440.2722 1027.6449 1439.1322 C 1027.2649 1437.9822 1026.7763 1436.8368 1026.1963 1435.6868 C 1025.6263 1434.5368 1025.1472 1433.1842 1024.7672 1431.6542 C 1023.9972 1430.5042 1023.4246 1429.2749 1023.0446 1427.9349 C 1022.6546 1426.5949 1022.0919 1424.9509 1021.3219 1423.0409 L 901.92984 1148.0026 L 814.68103 1148.0026 z M 1296.6539 1148.0026 L 1296.6539 1148.8444 L 1296.1058 1148.8444 L 1296.1449 1150.2342 L 1295.7534 1150.2342 L 1296.2624 1155.8133 L 1296.6147 1171.1215 L 1296.6539 1172.8442 L 1296.6539 1195.6694 L 1326.5068 1196.8048 C 1328.4249 1196.8048 1330.1049 1196.9704 1331.8314 1197.0984 C 1340.2165 1198.5942 1346.8072 1200.3829 1348.9993 1202.1294 C 1351.7212 1204.2981 1353.5571 1206.2667 1354.872 1209.2353 C 1355.0313 1209.5946 1355.2174 1209.9128 1355.3614 1210.2924 C 1355.8857 1211.7346 1356.2777 1213.5392 1356.6142 1215.5974 C 1356.9363 1219.6946 1357.2263 1226.4073 1357.5147 1233.8811 L 1357.5147 1458.0618 C 1357.5147 1463.0418 1356.9224 1467.2577 1355.7724 1470.7077 C 1354.6324 1474.1477 1352.914 1476.8333 1350.624 1478.7533 C 1350.1758 1479.1992 1349.5496 1479.5345 1349.0188 1479.9279 C 1347.8337 1480.6871 1346.9301 1481.1662 1345.965 1481.7288 C 1344.904 1482.2081 1343.8484 1482.6907 1342.5784 1483.0404 C 1339.1384 1484.0004 1335.1294 1484.489 1330.5394 1484.489 L 1328.8167 1484.489 C 1328.0467 1484.489 1327.2668 1484.2917 1326.5068 1483.9017 L 1296.6539 1483.9017 L 1296.6539 1485.3308 L 1296.3994 1485.3308 L 1296.3994 1485.4091 L 1296.2036 1485.4091 L 1296.2036 1507.2359 L 1296.2036 1529.0824 L 1296.3994 1529.0824 L 1296.6539 1529.0824 L 1296.6539 1531.0008 L 1519.386 1531.0008 L 1519.386 1483.334 L 1483.2101 1484.489 C 1478.9919 1484.489 1475.7465 1483.9528 1472.4631 1483.4319 C 1467.6051 1482.599 1463.8595 1481.4568 1461.0505 1479.9474 C 1460.4607 1479.5824 1459.7766 1479.2617 1459.2691 1478.8512 C 1459.1949 1478.7993 1459.1262 1478.7472 1459.0537 1478.6946 C 1457.2995 1477.2081 1455.9808 1475.0708 1454.9037 1472.5674 C 1454.5449 1471.505 1454.2107 1470.3711 1453.9249 1469.1025 C 1453.3848 1464.2634 1452.7809 1450.396 1452.2218 1433.8076 L 1452.2218 1363.3351 L 1537.748 1364.4705 C 1561.858 1364.4705 1582.9932 1362.2735 1601.1732 1357.8735 C 1619.3532 1353.4635 1634.3764 1346.8729 1646.2364 1338.0629 C 1658.0964 1329.2629 1666.9881 1318.1647 1672.9181 1304.7647 C 1678.8481 1291.3647 1681.825 1275.8629 1681.825 1258.2529 C 1681.825 1240.2629 1678.9517 1224.5538 1673.2117 1211.1538 C 1667.4717 1197.7638 1659.0591 1186.4778 1647.9591 1177.2878 C 1636.8691 1168.1078 1623.0752 1161.1023 1606.6152 1156.3223 C 1590.1652 1151.5323 1571.0393 1148.7726 1549.2193 1148.0026 L 1296.6539 1148.0026 z M 1923.4476 1148.0026 L 1923.4476 1195.6694 L 1953.3005 1196.8048 C 1959.0405 1196.8048 1963.9232 1197.3774 1967.9432 1198.5274 C 1971.9632 1199.6774 1975.1178 1201.2177 1977.4178 1203.1277 C 1978.5314 1204.0614 1979.4881 1205.1821 1980.3346 1206.4752 C 1980.4092 1206.6028 1980.4764 1206.736 1980.5499 1206.8667 C 1980.5687 1206.9001 1980.5899 1206.931 1980.6086 1206.9646 C 1980.6231 1206.9883 1980.6334 1207.0191 1980.6478 1207.0429 C 1982.9269 1214.0118 1983.8882 1227.8111 1984.3084 1254.1224 L 1984.3084 1431.3019 C 1984.1092 1442.2589 1983.8075 1450.5942 1983.3688 1456.7698 C 1982.577 1466.0597 1981.3247 1472.4047 1979.3558 1476.5217 C 1978.7325 1477.3025 1978.1591 1478.1318 1977.4178 1478.7533 C 1975.5078 1480.6633 1972.8222 1482.0904 1969.3722 1483.0404 C 1965.9322 1484.0004 1961.9036 1484.489 1957.3136 1484.489 L 1955.5909 1484.489 C 1954.8209 1484.489 1954.0705 1484.2917 1953.3005 1483.9017 L 1923.4476 1483.9017 L 1923.4476 1531.0008 L 2300.0054 1531.0008 L 2300.0054 1362.7674 L 2245.4676 1363.9028 C 2245.0876 1380.3628 2243.7546 1395.6869 2241.4546 1409.8469 C 2239.1646 1424.0069 2235.8963 1436.8331 2231.6863 1448.3131 C 2230.5832 1451.0746 2229.2467 1453.6362 2227.7125 1456.0651 C 2227.5321 1456.3475 2227.3477 1456.611 2227.1643 1456.8873 C 2222.3404 1464.169 2215.5556 1469.9512 2206.7273 1474.153 C 2201.1593 1476.81 2194.6151 1478.6839 2187.2887 1479.9474 C 2181.0892 1480.6513 2173.1603 1481.1005 2163.9153 1481.4548 C 2159.3523 1481.5719 2152.6314 1481.5653 2146.9432 1481.6114 L 2079.0156 1481.6114 L 2079.0156 1229.457 C 2079.8431 1218.8228 2080.9653 1212.6091 2082.4413 1208.8047 C 2083.5885 1206.524 2084.736 1204.6941 2085.9649 1203.0886 C 2088.2508 1201.1981 2091.3707 1199.669 2095.3613 1198.5274 C 2099.3813 1197.3774 2104.2639 1196.4394 2110.0039 1195.6694 L 2144.4375 1195.6694 L 2144.4375 1148.0026 L 1923.4476 1148.0026 z M 1458.7014 1197.5487 L 1494.6815 1198.5274 C 1510.7615 1198.5274 1524.4517 1199.6728 1535.7317 1201.9728 C 1547.0217 1204.2628 1555.9229 1207.531 1562.4329 1211.741 C 1568.9329 1216.331 1573.9096 1222.359 1577.3496 1229.829 C 1578.4839 1232.2889 1579.1525 1235.1973 1579.914 1238.0116 C 1581.2389 1244.215 1581.852 1251.6719 1581.852 1261.3458 C 1581.852 1262.6821 1581.8041 1263.8254 1581.7737 1265.026 C 1581.073 1271.6552 1579.8152 1277.8773 1577.3496 1283.2314 C 1576.0418 1286.0675 1574.3048 1288.501 1572.5535 1290.9247 C 1571.2051 1292.5709 1569.6702 1294.3334 1567.9141 1296.2493 C 1566.1548 1298.0021 1564.5011 1299.8589 1562.4329 1301.3194 C 1555.9229 1305.5394 1547.8757 1308.7876 1538.3157 1311.0876 C 1535.3815 1311.7897 1531.9806 1312.168 1528.7236 1312.6537 C 1523.1427 1313.2048 1516.7787 1313.7308 1508.8151 1314.298 C 1507.3063 1314.3306 1506.008 1314.5134 1504.4497 1314.5134 L 1502.4335 1314.5134 C 1501.4835 1314.5134 1500.629 1314.3257 1499.869 1313.9457 L 1452.2218 1313.9457 L 1452.2218 1198.1947 L 1458.7014 1197.5487 z M 838.79827 1234.7033 L 892.74885 1361.0252 L 789.9961 1361.0252 L 838.79827 1234.7033 z " /></g></g><path
       id="path15"
       style="fill:#ecffeb;fill-opacity:1;stroke-width:0.256708"
       d="M 172.1229 664.0692 L 172.1229 666.35827 L 172.1229 668.64733 L 174.33384 668.80358 C 176.74526 668.97375 177.63661 669.36869 178.04478 670.44225 C 178.20115 670.85353 178.27052 675.92823 178.22642 683.79967 L 178.1561 696.49303 L 177.4354 697.11217 C 176.79017 697.66707 176.47665 697.73327 174.41978 697.73327 L 172.1229 697.73327 L 172.1229 699.91491 L 172.1229 702.09655 L 183.16196 702.09655 L 194.19907 702.09655 L 194.19907 699.91491 L 194.19907 697.73327 L 191.92759 697.73327 C 189.26085 697.73327 188.21955 697.43247 187.81821 696.55163 C 187.63034 696.13929 187.52524 694.03922 187.52524 690.66491 L 187.52524 685.41881 L 193.6229 685.46178 C 200.59595 685.50976 202.33455 685.25575 205.41587 683.73913 C 207.57195 682.67791 208.82683 681.355 209.6522 679.27038 C 210.47466 677.19322 210.46863 672.81956 209.64048 670.72545 C 208.48451 667.80243 206.07969 665.88494 202.24009 664.8192 C 200.31384 664.28454 199.65601 664.25721 186.17759 664.16491 L 172.1229 664.0692 z M 187.52524 668.98131 L 190.54087 668.98327 C 197.98855 668.98806 200.39289 670.33728 200.56821 674.61022 C 200.63498 676.23757 200.55108 676.74263 200.05454 677.70788 C 199.42125 678.93898 198.30197 679.83182 196.79673 680.30749 C 196.28595 680.4689 193.99145 680.65515 191.69712 680.72155 L 187.52524 680.84264 L 187.52524 674.911 L 187.52524 668.98131 z "
       transform="scale(0.26458333)" /><path
       style="fill:#e3ffe1;fill-opacity:1;stroke-width:0.264583"
       d="M 80.013259,176.64392 4.8987709,196.04689"
       id="path16" /><path
       style="fill:#e8ffe7;fill-opacity:1;stroke-width:0.36304"
       d="m 234.70536,699.94112 v -2.17824 h 2.29037 c 3.95295,0 3.68369,0.9963 3.80346,-14.07283 0.1226,-15.42493 0.31504,-14.64687 -3.68556,-14.9016 l -2.40827,-0.15335 v -2.13595 -2.13595 h 10.8912 10.8912 v 2.13728 2.13727 l -2.58496,0.14606 c -4.18337,0.23638 -3.94976,-0.66405 -3.94976,15.22377 v 13.39226 h 5.69402 c 5.04705,0 5.87342,-0.0868 7.27294,-0.76434 1.05504,-0.51073 1.80097,-1.20336 2.24813,-2.08748 0.76793,-1.51832 1.48475,-4.60521 1.48475,-6.39387 0,-2.21768 0.191,-2.37159 2.94316,-2.37159 h 2.50244 v 8.1684 8.1684 h -18.69656 -18.69656 z"
       id="path17"
       transform="scale(0.26458333)" /><path
       style="fill:#cdfccb;fill-opacity:1;stroke-width:0.128354"
       d="m 83.751702,145.97061 7.02e-4,-2.40663 1.25075,-0.0122 c 0.729354,-0.007 1.411269,-0.0829 1.635812,-0.18178 0.395902,-0.1743 0.5018,-0.21145 0.681745,-0.23917 0.05728,-0.009 0.216121,-0.12004 0.352973,-0.24714 0.136852,-0.12711 0.349901,-0.26969 0.473442,-0.31686 0.123541,-0.0472 0.224619,-0.17421 0.224619,-0.28232 0,-0.1081 0.05193,-0.19656 0.115395,-0.19656 0.06347,0 0.229686,-0.21659 0.369376,-0.48132 0.627284,-1.18879 0.740454,-1.38241 0.831658,-1.42286 0.05339,-0.0237 0.06442,-0.0959 0.02451,-0.16044 -0.0399,-0.0646 -0.01839,-0.11739 0.04781,-0.11739 0.131774,0 0.450993,-0.69133 0.450993,-0.97671 0,-0.0982 0.03826,-0.17848 0.08502,-0.17848 0.04676,0 0.204339,-0.27436 0.350172,-0.60968 0.145833,-0.33533 0.440836,-1.014 0.655564,-1.50816 0.214728,-0.49416 0.572404,-1.36055 0.794837,-1.92531 0.222432,-0.56476 0.464208,-1.09903 0.537279,-1.18728 0.07307,-0.0882 0.09487,-0.16044 0.04845,-0.16044 -0.04642,0 -0.01235,-0.12996 0.07573,-0.2888 0.08808,-0.15883 0.147868,-0.33211 0.13287,-0.38506 -0.015,-0.0529 0.0339,-0.0963 0.10866,-0.0963 0.07476,0 0.102699,-0.0538 0.06208,-0.11949 -0.04062,-0.0657 -0.0142,-0.15634 0.0587,-0.2014 0.0729,-0.0451 0.09931,-0.13568 0.0587,-0.2014 -0.04062,-0.0657 -0.0093,-0.11948 0.06966,-0.11948 0.07893,0 0.110274,-0.0538 0.06966,-0.11949 -0.04062,-0.0657 -0.02165,-0.15174 0.04215,-0.19117 0.111855,-0.0691 1.380065,-3.15077 1.455569,-3.53691 0.02038,-0.10421 0.11257,-0.2705 0.204874,-0.36952 0.0923,-0.099 0.138867,-0.25551 0.103476,-0.34774 -0.03539,-0.0922 -0.01492,-0.18586 0.0455,-0.20807 0.116413,-0.0428 5.209052,-12.69577 5.285782,-13.13285 0.0248,-0.14099 0.0825,-0.28523 0.12844,-0.32052 0.0459,-0.0353 0.10365,-0.1797 0.12835,-0.32089 0.0247,-0.14119 0.0911,-0.29078 0.14761,-0.33243 0.0565,-0.0416 0.1121,-0.20049 0.12358,-0.35298 0.0115,-0.15248 0.0571,-0.27725 0.10138,-0.27725 0.0914,0 0.46314,-1.06429 0.39847,-1.14083 -0.0232,-0.0274 0.0148,-0.0852 0.0844,-0.12836 0.0696,-0.0432 0.1467,-0.19404 0.1714,-0.33523 0.10045,-0.57405 0.12896,-0.57759 4.64588,-0.57759 h 4.29841 l 0.22059,0.57759 c 0.12132,0.31768 0.2705,0.57759 0.3315,0.57759 0.061,0 0.0991,0.0433 0.0846,0.0963 -0.0487,0.17817 0.30174,1.05892 0.42133,1.05892 0.0651,0 0.11156,0.0433 0.1032,0.0963 -0.0436,0.27615 0.0361,0.54809 0.21232,0.72429 0.10841,0.10841 0.19505,0.22806 0.19253,0.26587 -0.0207,0.31041 0.0175,0.45889 0.15586,0.6051 0.0882,0.0933 0.17569,0.26321 0.19434,0.37761 0.0596,0.36547 1.97286,4.66773 2.09574,4.71251 0.065,0.0237 0.0882,0.0916 0.0516,0.15082 -0.0865,0.13996 0.19969,0.76878 0.34989,0.76878 0.0634,0 0.0844,0.0501 0.0466,0.11125 -0.0857,0.13863 6.43381,15.21092 6.60505,15.27011 0.0685,0.0237 0.0944,0.0919 0.0575,0.15162 -0.0852,0.13783 0.33191,1.02469 0.48192,1.02469 0.0617,0 0.0789,0.0538 0.0383,0.11954 -0.0774,0.12524 0.30167,1.04274 0.48684,1.17835 0.059,0.0432 0.0992,0.10095 0.0894,0.12835 -0.01,0.0274 0.0763,0.28087 0.19123,0.56325 0.48008,1.17906 0.75552,1.73278 0.86195,1.73278 0.0622,0 0.0774,0.0578 0.0337,0.12835 -0.0436,0.0706 -0.0182,0.12835 0.0566,0.12835 0.0748,0 0.13593,0.0866 0.13593,0.19254 0,0.10589 0.0612,0.19253 0.13593,0.19253 0.0748,0 0.10267,0.0538 0.062,0.11957 -0.0406,0.0658 0.0554,0.21016 0.21351,0.32088 0.15808,0.11073 0.23673,0.20132 0.17479,0.20132 -0.17989,0 0.32947,0.51092 0.90557,0.90835 0.29105,0.20078 0.56541,0.32883 0.60968,0.28455 0.0443,-0.0443 0.0805,-0.0223 0.0805,0.0489 0,0.12267 0.74098,0.38682 1.15518,0.4118 1.39473,0.0841 2.09198,0.15185 2.19064,0.21283 0.0669,0.0413 0.11974,1.0906 0.11974,2.37679 v 2.3028 h -10.52503 -10.52503 v -2.35588 -2.35588 l 1.76486,-0.0904 c 2.05615,-0.10525 2.69334,-0.23841 3.14503,-0.65724 0.28963,-0.26856 0.32459,-0.39273 0.29527,-1.04864 -0.035,-0.78282 -0.55656,-2.60514 -0.74561,-2.60514 -0.0609,0 -0.075,-0.0578 -0.0313,-0.12836 0.0436,-0.0706 0.0147,-0.12835 -0.0642,-0.12835 -0.0789,0 -0.11517,-0.0458 -0.0806,-0.10187 0.0346,-0.056 -0.18018,-0.67693 -0.47735,-1.3798 l -0.54031,-1.27794 -7.21631,-0.0332 c -4.78695,-0.022 -7.216316,0.0104 -7.216316,0.0963 0,0.0712 0.0049,0.16629 0.01096,0.21134 0.006,0.0451 -0.04304,0.11725 -0.109037,0.16045 -0.161553,0.10571 -1.471702,3.49316 -1.384691,3.58017 0.03775,0.0378 -2.57e-4,0.15167 -0.08447,0.25313 -0.220124,0.26524 -0.263471,2.37517 -0.05466,2.66074 0.0905,0.12376 0.333611,0.2461 0.540246,0.27186 0.424662,0.0529 2.966243,0.17956 3.604238,0.17956 h 0.4186 l 0.0376,2.3747 0.0376,2.3747 -8.439275,-1.5e-4 -8.439278,-1.5e-4 z m 25.592418,-15.91104 c -1.63069,-3.8979 -4.07748,-9.48043 -4.18548,-9.54949 -0.0675,-0.0432 -0.12039,-0.12983 -0.11744,-0.19253 0.0131,-0.27813 -0.15162,-0.6916 -0.27545,-0.6916 -0.0747,0 -0.0994,-0.0365 -0.0548,-0.0811 0.0977,-0.0977 -0.13284,-0.56072 -0.27922,-0.56072 -0.057,0 -0.26667,0.41876 -0.46603,0.93057 -0.19937,0.51181 -0.44418,1.05748 -0.54403,1.21259 -0.0999,0.15512 -0.18494,0.3284 -0.18908,0.38506 -0.004,0.0567 -0.0579,0.24744 -0.11939,0.42392 -0.0615,0.17649 -0.10632,0.37219 -0.0995,0.43489 0.007,0.0627 -0.0387,0.14934 -0.10099,0.19253 -0.16722,0.11588 -0.6869,1.43754 -0.61255,1.55785 0.0351,0.0568 0.009,0.12255 -0.0573,0.14623 -0.16353,0.0581 -1.17609,2.67932 -1.08928,2.81978 0.0378,0.0612 0.0154,0.11124 -0.0498,0.11124 -0.15239,0 -1.07386,2.42751 -0.97945,2.58027 0.0391,0.0633 0.0145,0.11516 -0.0548,0.11516 -0.0693,0 -0.193829,0.2056 -0.276764,0.4569 -0.256182,0.77624 -0.242984,0.88494 0.117356,0.96662 0.183928,0.0417 2.512168,0.0872 5.173868,0.10112 l 4.83945,0.0253 z"
       id="path18"
       transform="matrix(0.26458333,0,0,0.26458333,5.8197605,146.57267)" /><path
       style="fill:#cdfccb;fill-opacity:1;stroke-width:0.128354"
       d="m 83.751,145.95535 v -2.29355 l 1.350468,-0.0601 c 1.221165,-0.0543 1.43274,-0.10201 2.209728,-0.49815 0.670743,-0.34198 0.965126,-0.58975 1.341797,-1.12934 0.265395,-0.38018 0.451675,-0.74118 0.413955,-0.80221 -0.03772,-0.061 -0.0055,-0.11097 0.07162,-0.11097 0.172393,0 1.308072,-2.30054 1.212231,-2.45561 -0.03789,-0.0613 -0.01561,-0.11147 0.04951,-0.11147 0.127081,0 0.838012,-1.49684 0.838012,-1.76441 0,-0.0885 0.04187,-0.1609 0.09305,-0.1609 0.08973,0 0.243652,-0.45754 0.232659,-0.6916 -0.0029,-0.0627 0.05156,-0.14934 0.121133,-0.19253 0.06957,-0.0432 0.146701,-0.19404 0.171406,-0.33523 0.0247,-0.14119 0.08171,-0.28559 0.126669,-0.32089 0.153973,-0.12087 1.519593,-3.49505 1.456111,-3.59777 -0.03487,-0.0564 -0.007,-0.12194 0.06188,-0.14562 0.16727,-0.0575 6.819821,-16.66937 6.732291,-16.811 -0.0376,-0.0608 -0.0169,-0.1106 0.0459,-0.1106 0.0629,0 0.48032,-0.92415 0.92771,-2.05367 l 0.81344,-2.05366 h 4.32747 4.32747 l 0.28652,0.70594 c 0.15759,0.38827 0.34099,0.70595 0.40755,0.70595 0.0666,0 0.0897,0.0507 0.0514,0.11264 -0.0383,0.0619 0.32809,1.02942 0.81418,2.14993 0.48609,1.12051 2.64453,6.10932 4.79654,11.08625 6.89304,15.9415 6.88084,15.91504 7.8575,17.03101 0.89595,1.02373 1.89321,1.4424 3.62161,1.52042 0.36862,0.0166 0.81626,0.0669 0.99474,0.1117 l 0.32452,0.0815 v 2.24375 2.24375 h -10.46086 -10.46085 v -2.31038 -2.31037 h 1.54025 c 0.84713,0 1.54025,-0.0478 1.54025,-0.10612 0,-0.0584 0.17327,-0.0807 0.38506,-0.0496 0.21308,0.0313 0.38506,-0.002 0.38506,-0.0744 0,-0.072 0.1137,-0.10117 0.25267,-0.0648 0.1687,0.0441 0.38197,-0.0632 0.64177,-0.32303 0.70207,-0.70207 0.50227,-1.80341 -0.95542,-5.26657 l -0.66702,-1.58469 -7.17631,0.0183 c -3.94698,0.0101 -7.210921,0.0589 -7.253217,0.10862 -0.182323,0.21416 -1.394024,3.52612 -1.328716,3.63179 0.03964,0.0642 0.01667,0.11663 -0.05105,0.11663 -0.06772,0 -0.185585,0.27436 -0.261923,0.60968 -0.161855,0.71097 -0.16518,2.34246 -0.0048,2.34246 0.06045,0 0.07759,0.0842 0.03809,0.18716 -0.04704,0.1226 0.03183,0.21115 0.228648,0.2567 0.345836,0.08 0.260699,0.075 2.578751,0.15267 l 1.764867,0.0591 v 2.30343 2.30343 H 92.158189 83.751 Z m 26.09167,-14.74545 c -0.49603,-1.31861 -4.30345,-9.99018 -4.40061,-10.02256 -0.071,-0.0237 -0.10044,-0.0896 -0.0653,-0.1464 0.086,-0.1391 -0.71114,-1.92841 -0.85907,-1.92841 -0.0643,0 -0.0811,-0.0578 -0.0375,-0.12835 0.0436,-0.0706 0.0244,-0.12835 -0.0427,-0.12835 -0.11733,0 -0.34262,0.60393 -0.29925,0.80221 0.0116,0.0529 -0.0297,0.0963 -0.0917,0.0963 -0.091,0 -0.66544,1.32808 -0.73557,1.70069 -0.01,0.053 -0.0322,0.13959 -0.0494,0.19254 -0.0172,0.0529 -0.0244,0.13958 -0.0161,0.19253 0.008,0.0529 -0.0487,0.0963 -0.12688,0.0963 -0.0781,0 -0.11028,0.0829 -0.0714,0.18424 0.0389,0.10133 0.0211,0.20241 -0.0394,0.22462 -0.19455,0.0713 -3.469355,8.45969 -3.469355,8.88668 0,0.1813 0.547365,0.20266 5.194315,0.20266 4.89358,0 5.18941,-0.013 5.10981,-0.22462 z"
       id="path19"
       transform="matrix(0.26458333,0,0,0.26458333,5.8197605,146.57267)" /><path
       style="fill:#cdfccb;fill-opacity:1;stroke-width:0.18152"
       d="m 83.771481,146.03284 v -2.269 l 0.58994,-0.003 c 0.45406,-0.002 0.527226,-0.0445 0.31766,-0.1841 -0.192688,-0.12831 -0.05781,-0.14901 0.461425,-0.0708 1.14843,0.17296 2.235393,-0.21312 3.136219,-1.11395 0.434677,-0.43467 0.737576,-0.87567 0.673107,-0.97998 -0.06447,-0.10431 -0.03174,-0.18966 0.07273,-0.18966 0.251002,0 1.508292,-2.50615 1.369749,-2.73032 -0.05915,-0.0957 -0.01622,-0.174 0.09541,-0.174 0.11162,0 0.152462,-0.0817 0.09076,-0.18152 -0.0617,-0.0998 -0.02086,-0.18152 0.09076,-0.18152 0.11162,0 0.152462,-0.0817 0.09076,-0.18152 -0.0617,-0.0998 -0.02086,-0.18152 0.09076,-0.18152 0.11162,0 0.152462,-0.0817 0.09076,-0.18152 -0.0617,-0.0998 -0.03678,-0.18152 0.05539,-0.18152 0.162016,0 0.848491,-1.5375 0.850985,-1.90596 6.76e-4,-0.0998 0.103334,-0.28946 0.228129,-0.42139 0.204718,-0.21641 0.306229,-0.61911 0.248395,-0.98539 -0.01182,-0.0749 0.06501,-0.13614 0.170737,-0.13614 0.105728,0 0.14175,-0.0817 0.08005,-0.18152 -0.0617,-0.0998 -0.01694,-0.18152 0.09947,-0.18152 0.11641,0 0.164636,-0.12253 0.10717,-0.27228 -0.05747,-0.14975 -0.03543,-0.27228 0.04896,-0.27228 0.206136,0 1.307241,-2.72523 1.182593,-2.92692 -0.05402,-0.0874 -0.02411,-0.15892 0.06648,-0.15892 0.210739,0 0.786437,-1.45105 0.65809,-1.65872 -0.05319,-0.0861 -0.02451,-0.15648 0.06373,-0.15648 0.144823,0 1.765326,-3.88105 1.894806,-4.538 0.02952,-0.14975 0.112046,-0.31616 0.183401,-0.36979 0.206068,-0.15489 1.061704,-2.53423 0.912444,-2.53731 -0.07402,-0.002 -0.04064,-0.0628 0.07418,-0.13614 0.114816,-0.0734 0.237342,-0.29673 0.27228,-0.4964 0.03494,-0.19967 0.116621,-0.40388 0.18152,-0.4538 0.0649,-0.0499 0.146582,-0.25413 0.18152,-0.4538 0.03494,-0.19967 0.116621,-0.40388 0.18152,-0.4538 0.0649,-0.0499 0.146582,-0.25413 0.18152,-0.4538 0.03494,-0.19967 0.110808,-0.40388 0.168602,-0.4538 0.05779,-0.0499 0.746768,-1.70402 1.531047,-3.67578 l 1.42598,-3.58502 h 4.28262 c 3.99501,0 4.30262,0.0234 4.58034,0.3477 0.16374,0.19123 0.24996,0.39544 0.1916,0.4538 -0.0583,0.0584 -0.006,0.1061 0.11639,0.1061 0.12237,0 0.17843,0.0713 0.12457,0.15843 -0.0967,0.15651 1.26439,3.47397 1.49843,3.65215 0.0665,0.0507 0.14521,0.21463 0.17483,0.36438 0.0957,0.48377 0.82636,2.17824 0.93928,2.17824 0.0602,0 0.12174,0.14295 0.1367,0.31766 0.0405,0.47271 2.76786,6.66098 2.9669,6.73174 0.0942,0.0335 0.12886,0.12947 0.0771,0.2133 -0.12233,0.19793 0.28241,1.08722 0.49482,1.08722 0.0897,0 0.1164,0.0756 0.0593,0.16792 -0.12941,0.20938 0.26369,1.10272 0.48524,1.10272 0.0897,0 0.12101,0.0681 0.0696,0.15133 -0.11499,0.18606 2.03608,5.17962 2.26774,5.26439 0.0915,0.0335 0.12574,0.12665 0.0761,0.20703 -0.11198,0.18119 2.23711,5.51761 2.46583,5.60161 0.0912,0.0335 0.12161,0.13235 0.0676,0.21969 -0.13179,0.21323 0.95788,2.35147 1.19833,2.35147 0.10429,0 0.14777,0.0677 0.0966,0.15046 -0.13068,0.21143 0.97182,1.50918 1.17529,1.38343 0.0918,-0.0567 0.16691,-0.0187 0.16691,0.0844 0,0.31398 1.12786,0.79305 1.99518,0.84747 0.45011,0.0282 1.08385,0.10784 1.40832,0.17688 l 0.58994,0.12552 v 2.24631 2.24631 h -10.4374 -10.4374 v -2.269 -2.269 l 0.6807,-0.0258 0.6807,-0.0258 -0.72608,-0.14483 c -0.45624,-0.091 -8.9e-4,-0.11304 1.22526,-0.0593 1.23714,0.0542 1.95134,0.0191 1.95134,-0.096 0,-0.0999 0.12668,-0.13294 0.28152,-0.0735 0.49132,0.18854 1.17064,-0.63646 1.17064,-1.4217 0,-0.38194 -0.0791,-0.69444 -0.17582,-0.69444 -0.0967,0 -0.13342,-0.11052 -0.0816,-0.24559 0.0805,-0.20991 -0.82768,-2.7213 -1.56875,-4.33779 L 112.03033,136.14 h -7.20253 -7.202526 l -0.212963,0.4674 c -0.117129,0.25707 -0.166262,0.54297 -0.109184,0.63532 0.05708,0.0924 0.02911,0.16792 -0.06215,0.16792 -0.20189,0 -1.15666,2.52656 -1.031375,2.72927 0.04896,0.0792 -0.0028,0.17467 -0.11513,0.2121 -0.267361,0.0891 -0.417235,2.51274 -0.177308,2.86727 0.123539,0.18255 0.530453,0.28208 1.234713,0.30202 0.577745,0.0164 1.560972,0.0882 2.184947,0.15959 l 1.134496,0.12984 v 2.24556 2.24555 h -8.349916 -8.34992 z m 26.138879,-14.58815 c 0,-0.33939 -0.78423,-2.02093 -0.94251,-2.02093 -0.0924,0 -0.12133,-0.0756 -0.0643,-0.16792 0.12941,-0.20938 -0.26369,-1.10272 -0.48524,-1.10272 -0.0897,0 -0.11639,-0.0756 -0.0593,-0.16792 0.12941,-0.20938 -0.26369,-1.10272 -0.48524,-1.10272 -0.0897,0 -0.11639,-0.0756 -0.0593,-0.16792 0.12941,-0.20938 -0.26369,-1.10272 -0.48524,-1.10272 -0.0897,0 -0.11639,-0.0756 -0.0593,-0.16792 0.11921,-0.19288 -0.25568,-1.10272 -0.45436,-1.10272 -0.0727,0 -0.12087,-0.10247 -0.107,-0.22772 0.0314,-0.2837 -2.10361,-5.21788 -2.25778,-5.21788 -0.12232,0 -0.67246,1.19355 -0.75301,1.63368 -0.0274,0.14975 -0.0958,0.31312 -0.15188,0.36304 -0.14064,0.1251 -0.98708,2.22646 -0.98708,2.45052 0,0.0998 -0.0568,0.22444 -0.12626,0.27689 -0.19172,0.14481 -2.868819,7.18139 -2.868819,7.54051 0,0.28699 0.226906,0.30589 2.677419,0.22308 1.47258,-0.0498 2.47321,-0.0291 2.22362,0.046 -0.25077,0.0754 0.86591,0.14459 2.4959,0.15459 1.62234,0.01 2.9497,-0.0527 2.9497,-0.13922 z"
       id="path20"
       transform="matrix(0.26458333,0,0,0.26458333,5.8197605,146.57267)" /><path
       style="fill:#cdfccb;fill-opacity:1;stroke-width:0.18152"
       d="m 83.771481,146.05066 v -2.25117 l 1.1345,-0.12299 c 2.877364,-0.31194 3.477419,-0.79946 5.116274,-4.1567 1.42974,-2.92886 3.293548,-7.40612 8.190109,-19.67436 l 3.786726,-9.48756 4.3521,0.0485 4.3521,0.0485 1.61386,3.72116 c 0.88761,2.04664 1.68992,3.74856 1.7829,3.78204 0.093,0.0335 0.1296,0.12473 0.0814,0.20276 -0.0714,0.1156 4.82418,11.58172 8.69975,20.37582 1.51279,3.43271 2.87341,4.84949 4.77073,4.96765 0.47534,0.0296 1.12973,0.11031 1.4542,0.17935 l 0.58994,0.12552 v 2.24631 2.24631 h -10.4374 -10.4374 v -2.269 c 0,-2.03692 0.0325,-2.26981 0.31766,-2.27691 0.17471,-0.004 1.1613,-0.0778 2.19242,-0.1632 3.33056,-0.27586 3.46862,-0.91122 1.31377,-6.04595 l -0.5904,-1.40674 h -7.23041 -7.23042 l -0.718561,1.86058 c -0.921306,2.38555 -1.121909,3.12538 -1.119736,4.12958 0.0026,1.18621 0.173509,1.35652 1.396281,1.39114 0.577745,0.0164 1.560972,0.0882 2.184947,0.15959 l 1.134499,0.12984 v 2.24556 2.24555 h -8.349919 -8.34992 z m 26.138879,-14.62169 c 0,-0.0952 -1.07082,-2.64778 -2.3796,-5.6725 -1.30878,-3.02471 -2.50559,-5.80578 -2.65958,-6.18017 -0.44808,-1.08944 -0.29978,-1.31664 -2.28088,3.49426 -1.19226,2.89529 -3.026579,7.78016 -3.026579,8.05992 0,0.23363 0.377423,0.28841 2.314379,0.33589 5.65268,0.13856 8.03226,0.12749 8.03226,-0.0374 z"
       id="path21"
       transform="matrix(0.26458333,0,0,0.26458333,5.8197605,146.57267)" /><path
       style="fill:#cdfccb;fill-opacity:1;stroke-width:0.18152"
       d="m 83.771481,146.05066 v -2.25117 l 1.1345,-0.12299 c 2.877364,-0.31194 3.477419,-0.79946 5.116274,-4.1567 1.43965,-2.94916 3.330573,-7.49046 8.192085,-19.67436 l 3.78564,-9.48756 4.35169,0.0485 4.35168,0.0485 1.21836,2.81356 c 0.6701,1.54746 1.2881,2.89524 1.37333,2.99508 0.0852,0.0998 0.17625,0.31266 0.20227,0.47293 0.0399,0.24564 6.59982,15.48595 9.38354,21.80021 1.51354,3.43312 2.87385,4.84949 4.77105,4.96765 0.47534,0.0296 1.12973,0.11031 1.4542,0.17935 l 0.58994,0.12552 v 2.24631 2.24631 h -10.4374 -10.4374 v -2.269 c 0,-2.03692 0.0325,-2.26981 0.31766,-2.27691 0.17471,-0.004 1.1613,-0.0778 2.19242,-0.1632 3.33056,-0.27586 3.46862,-0.91122 1.31377,-6.04595 L 112.05472,136.14 h -7.23041 -7.23042 l -0.718561,1.86058 c -0.921306,2.38555 -1.121909,3.12538 -1.119736,4.12958 0.0026,1.18621 0.173509,1.35652 1.396281,1.39114 0.577745,0.0164 1.560972,0.0882 2.184947,0.15959 l 1.134499,0.12984 v 2.24556 2.24555 h -8.349919 -8.34992 z m 26.138879,-14.62169 c 0,-0.0952 -1.07082,-2.64778 -2.3796,-5.6725 -1.30878,-3.02471 -2.50559,-5.80578 -2.65958,-6.18017 -0.44808,-1.08944 -0.29978,-1.31664 -2.28088,3.49426 -1.19226,2.89529 -3.026579,7.78016 -3.026579,8.05992 0,0.23363 0.377423,0.28841 2.314379,0.33589 5.65268,0.13856 8.03226,0.12749 8.03226,-0.0374 z"
       id="path24"
       transform="matrix(0.26458333,0,0,0.26458333,5.8197605,146.57267)" /><path
       style="fill:#cdfccb;fill-opacity:1;stroke-width:0.18152"
       d="m 83.771481,146.05066 v -2.25117 l 1.1345,-0.12299 c 2.877364,-0.31194 3.477419,-0.79946 5.116274,-4.1567 1.43965,-2.94916 3.330573,-7.49046 8.192085,-19.67436 l 3.78564,-9.48756 4.35385,0.0485 4.35385,0.0485 5.13915,11.88956 c 7.12965,16.49466 7.82006,18.03419 8.56729,19.10375 0.8334,1.19291 2.07906,1.98396 3.23778,2.05612 0.47534,0.0296 1.12973,0.11031 1.4542,0.17935 l 0.58994,0.12552 v 2.24631 2.24631 h -10.4374 -10.4374 v -2.269 c 0,-2.03692 0.0325,-2.26981 0.31766,-2.27691 0.17471,-0.004 1.1613,-0.0778 2.19242,-0.1632 3.33056,-0.27586 3.46862,-0.91122 1.31377,-6.04595 L 112.05472,136.14 h -7.23041 -7.23042 l -0.718561,1.86058 c -0.921306,2.38555 -1.121909,3.12538 -1.119736,4.12958 0.0026,1.18621 0.173509,1.35652 1.396281,1.39114 0.577745,0.0164 1.560972,0.0882 2.184947,0.15959 l 1.134499,0.12984 v 2.24556 2.24555 h -8.349919 -8.34992 z m 26.138879,-14.62169 c 0,-0.0952 -1.07082,-2.64778 -2.3796,-5.6725 -1.30878,-3.02471 -2.50559,-5.80578 -2.65958,-6.18017 -0.44808,-1.08944 -0.29978,-1.31664 -2.28088,3.49426 -1.19226,2.89529 -3.026579,7.78016 -3.026579,8.05992 0,0.23363 0.377423,0.28841 2.314379,0.33589 5.65268,0.13856 8.03226,0.12749 8.03226,-0.0374 z"
       id="path25"
       transform="matrix(0.26458333,0,0,0.26458333,5.8197605,146.57267)" /></g><path
     style="fill:#f1fff1;fill-opacity:1;stroke-width:0.0480272"
     d="m 22.156064,38.620084 v -0.624353 h 0.237773 c 0.40183,0 0.69524,-0.08729 0.909301,-0.270516 0.313262,-0.268141 0.797462,-1.34448 2.314028,-5.14388 l 1.365628,-3.421272 1.152652,7.94e-4 1.152652,7.94e-4 1.580131,3.660521 c 0.869072,2.013286 1.671183,3.857111 1.782469,4.09739 0.353346,0.76291 0.6838,1.027385 1.332055,1.066099 l 0.372211,0.02222 v 0.618183 0.61818 h -2.785576 -2.785575 v -0.62022 -0.620218 l 0.548973,-0.01614 c 0.989976,-0.02911 1.043353,-0.203621 0.471125,-1.54037 l -0.179623,-0.419608 -1.894091,0.01138 -1.894089,0.01138 -0.23736,0.60034 c -0.187381,0.473924 -0.238575,0.662992 -0.24312,0.897874 -0.0036,0.186624 0.01746,0.320892 0.05654,0.360203 0.04229,0.04254 0.246697,0.06782 0.63636,0.0787 l 0.574058,0.01603 v 0.620332 0.620329 H 24.389323 22.15606 Z m 6.851581,-3.998262 c -0.470387,-1.118883 -1.34651,-3.142287 -1.37292,-3.170758 -0.02947,-0.03177 -1.304216,3.191793 -1.301343,3.290826 5.29e-4,0.01982 0.617284,0.03602 1.370465,0.03602 h 1.369417 z"
     id="path14" /><path
     id="path26"
     style="fill:#f1fff1;fill-opacity:1;stroke-width:0.18152"
     d="M 102.12891 110.32031 L 102.11328 110.35938 L 102 110.35742 L 98.214845 119.8457 C 93.353333 132.0296 91.461136 136.57037 90.021486 139.51953 C 88.382631 142.87677 87.783615 143.36384 84.906251 143.67578 L 83.771485 143.79883 L 83.771485 146.05078 L 83.771485 148.30274 L 92.121095 148.30274 L 100.4707 148.30274 L 100.4707 146.0332 C 100.4707 143.99715 100.43935 143.76291 100.1543 143.75391 C 98.066987 143.68688 96.060283 143.42684 95.919923 143.20508 C 95.696982 142.85284 95.713886 141.49928 95.947267 140.625 C 95.952556 140.60284 95.959402 140.579 95.964845 140.55664 C 96.082713 140.14128 96.485579 139.00834 96.875001 138 L 97.593751 136.14063 L 104.82422 136.14063 L 112.05469 136.14063 L 112.64453 137.54688 C 113.70515 140.0742 114.20645 141.5087 114.04883 142.34961 C 114.03743 142.40462 114.02258 142.4553 114.00586 142.50586 C 113.99322 142.54515 113.98104 142.58472 113.96485 142.6211 C 113.94312 142.67029 113.91438 142.71499 113.88672 142.75977 C 113.85599 142.80736 113.82752 142.8563 113.78906 142.89844 C 113.78141 142.90748 113.77163 142.91499 113.76367 142.92383 C 113.36089 143.33642 112.56751 143.48947 111.33203 143.5918 C 110.30091 143.6772 109.31338 143.75186 109.13867 143.75586 C 108.85351 143.76296 108.82031 143.99628 108.82031 146.0332 L 108.82031 148.30274 L 119.25781 148.30274 L 129.69531 148.30274 L 129.69531 146.05469 L 129.69531 143.8086 L 129.50977 143.76953 L 129.50977 143.75586 L 129.44727 143.75586 L 129.10547 143.6836 C 128.781 143.61456 128.12769 143.53351 127.65235 143.50391 C 127.21783 143.47685 126.77054 143.34925 126.33789 143.13672 C 126.19368 143.06588 126.05027 142.98546 125.91016 142.89649 C 125.42751 142.58999 124.98013 142.17455 124.59766 141.68555 C 124.49658 141.54895 124.39951 141.4289 124.28516 141.2461 C 124.12427 140.98891 123.93851 140.65561 123.73633 140.27539 C 122.88436 138.59138 121.14679 134.60346 115.84766 122.34375 L 110.70703 110.45508 L 106.35352 110.40625 L 103.33594 110.37305 L 102.12891 110.32031 z M 104.51172 118.97266 C 104.52229 118.9727 104.53085 118.98573 104.54102 118.98828 C 104.6397 119.10442 104.76576 119.32007 104.8711 119.57617 C 105.02509 119.95056 106.22247 122.73115 107.53125 125.75586 C 108.84003 128.78058 109.91016 131.33449 109.91016 131.42969 C 109.91016 131.59458 107.53159 131.60536 101.87891 131.4668 C 99.941952 131.41932 99.564454 131.36449 99.564454 131.13086 C 99.564454 130.47361 104.05512 119.25781 104.31836 119.25781 C 104.41046 119.25781 104.43475 119.17597 104.37305 119.07617 C 104.36587 119.06457 104.37013 119.05789 104.36524 119.04688 C 104.41981 118.99633 104.46777 118.97248 104.51172 118.97266 z "
     transform="scale(0.26458333)" /><path
     style="fill:#cdfccb;fill-opacity:1;stroke-width:0.256708"
     d="m 76.370644,92.65306 c 0,-0.730714 1.401429,-6.226348 2.209115,-8.662933 1.241599,-3.745593 4.601338,-10.444951 6.706764,-13.373365 C 95.316769,56.665801 111.33955,52.929008 131.37034,59.869207 l 2.2462,0.778253 v 16.140427 16.140426 h -28.62295 c -20.196376,0 -28.622946,-0.08103 -28.622946,-0.275253 z"
     id="path27"
     transform="scale(0.26458333)" /><path
     style="fill:#cdfccb;fill-opacity:1;stroke-width:0.256708"
     d="m 142.0879,78.681017 c 0,-7.836014 0.0882,-14.247297 0.19606,-14.247297 0.28684,0 6.97121,3.673463 9.87112,5.424772 1.37186,0.82849 2.61589,1.506345 2.76452,1.506345 0.14862,0 1.74088,-1.027724 3.53835,-2.283832 11.61665,-8.117953 23.8877,-14.670085 33.89293,-18.097139 l 3.38901,-1.160826 v 21.552636 21.552637 h -26.82599 -26.826 z"
     id="path28"
     transform="scale(0.26458333)" /><path
     style="fill:#cdfccb;fill-opacity:1;stroke-width:0.256708"
     d="M 146.68777,55.382061 C 127.30793,30.288026 122.8379,24.282306 122.83608,23.336042 c -7e-4,-0.366388 0.24182,-0.886222 0.53894,-1.155186 0.51593,-0.467037 1.19985,-0.492279 15.20995,-0.561364 12.87913,-0.06351 14.80036,-0.02272 15.73992,0.334165 2.31998,0.881227 2.34761,1.419856 0.84262,16.424196 -0.52921,5.275956 -2.51946,23.623127 -2.6243,24.192033 -0.0322,0.175 -2.66719,-3.059521 -5.85544,-7.187825 z"
     id="path29"
     transform="scale(0.26458333)" /><path
     style="fill:#cdfccb;fill-opacity:1;stroke-width:0.256708"
     d="m 204.21125,70.236003 v -22.69231 l 1.60443,-0.278276 c 5.71973,-0.992047 14.02219,-1.019377 18.71433,-0.0616 10.99073,2.243457 19.92624,8.448033 26.47728,18.385092 2.08102,3.15663 5.29199,9.823393 6.68461,13.878923 1.28737,3.74899 2.85046,9.736885 3.12843,11.984413 l 0.18256,1.476071 h -28.39582 -28.39582 z"
     id="path30"
     transform="scale(0.26458333)" /><path
     style="fill:#ffffff;fill-opacity:1;stroke-width:0.256708"
     d="m 204.21125,128.73909 v -27.33941 h 28.98497 28.98496 l 0.21558,2.24619 c 0.32372,3.37307 0.24188,15.88855 -0.12969,19.8307 -0.96636,10.25275 -2.71878,19.1957 -5.62139,28.68713 l -1.1972,3.91479 h -25.61861 -25.61862 z m 45.95074,11.15811 v -8.48005 l -2.75961,0.0729 -2.75961,0.0729 -0.18464,2.40168 c -0.31022,4.03525 -1.17729,6.70519 -2.55363,7.8633 -1.37653,1.15827 -2.91537,1.41524 -8.47512,1.41524 h -5.08757 V 130.0347 c 0,-9.32554 0.0859,-13.39684 0.29209,-13.84945 0.39709,-0.87151 1.44063,-1.18004 3.99119,-1.18004 h 2.15301 l -0.0735,-2.50291 -0.0735,-2.5029 H 223.59265 212.5542 l -0.0735,2.5029 -0.0735,2.50291 h 1.94285 c 2.30511,0 3.6212,0.4681 3.98166,1.41618 0.31587,0.83081 0.32733,23.63599 0.0127,25.26624 -0.3092,1.60208 -0.71832,1.81217 -3.52896,1.81217 h -2.38966 v 2.43872 2.43873 h 18.86804 18.86804 z"
     id="path31"
     transform="scale(0.26458333)" /><path
     style="fill:#cdfccb;fill-opacity:1;stroke-width:0.256708"
     d="m 142.0879,128.73909 v -27.33941 h 26.826 26.82599 v 27.33941 27.3394 h -26.82599 -26.826 z m 30.29155,17.22215 v -2.41602 l -2.81526,-0.0869 c -3.94372,-0.12171 -3.71126,0.26749 -3.81355,-6.38488 l -0.0828,-5.38222 h 5.90029 c 6.70972,0 8.83732,-0.28792 11.62593,-1.57327 2.08593,-0.96147 3.5567,-2.43098 4.54667,-4.54276 0.62058,-1.32382 0.68295,-1.73817 0.68295,-4.53736 0,-2.92398 -0.0411,-3.16734 -0.80984,-4.78982 -0.99401,-2.09804 -2.54303,-3.65392 -4.60351,-4.62387 -3.18483,-1.49923 -3.83451,-1.55697 -18.93821,-1.68325 -7.60458,-0.0636 -13.90773,-0.0187 -14.00699,0.0998 -0.0993,0.11847 -0.13323,1.27004 -0.0755,2.55904 l 0.10497,2.34364 2.16354,0.11356 c 1.65198,0.0867 2.32907,0.23712 2.86358,0.63616 l 0.70003,0.5226 0.0665,13.08676 c 0.0787,15.4848 0.44569,13.99324 -3.49346,14.19734 l -2.47731,0.12835 -0.0757,2.03098 c -0.0417,1.11703 -0.0164,2.18558 0.0561,2.37455 0.10732,0.27968 2.21001,0.34357 11.3067,0.34357 h 11.17485 z"
     id="path35"
     transform="scale(0.26458333)" /><path
     style="fill:#cdfccb;fill-opacity:1;stroke-width:0.256708"
     d="m 165.70504,120.93963 v -5.67772 h 3.16171 c 5.05991,0 7.46816,0.65649 8.68942,2.36874 0.49966,0.70054 0.61371,1.22627 0.68646,3.16446 0.0864,2.30131 0.0787,2.33562 -0.77979,3.46111 -1.33319,1.74793 -2.51812,2.09818 -7.58629,2.24241 l -4.17151,0.11872 z"
     id="path36"
     transform="scale(0.26458333)" /><path
     style="fill:#cdfccb;fill-opacity:1;stroke-width:0.256708"
     d="m 80.534363,151.77863 c -2.997521,-9.75463 -4.785914,-18.77271 -5.739911,-28.94383 -0.365524,-3.89706 -0.445511,-15.31488 -0.13263,-18.93222 l 0.216488,-2.5029 h 29.36911 29.36912 v 27.33941 27.3394 H 107.73611 81.855675 Z m 20.223547,-5.80791 v -2.40654 l -2.203296,-0.11564 c -1.51725,-0.0796 -2.279499,-0.22954 -2.448034,-0.48143 -0.356139,-0.53229 -0.101251,-1.86293 0.845305,-4.41291 l 0.835263,-2.25016 7.039372,0.0682 7.03937,0.0681 0.86656,1.97445 c 0.47661,1.08595 0.93715,2.48944 1.02342,3.11886 0.13909,1.01475 0.0899,1.18025 -0.43431,1.46079 -0.49341,0.26407 -2.31523,0.4696 -4.42281,0.49897 -0.41256,0.006 -0.45142,0.24603 -0.38506,2.38095 l 0.0738,2.37455 10.71756,0.067 10.71757,0.067 v -2.44154 -2.44154 l -0.96266,-0.001 c -2.51786,-0.004 -4.08646,-1.13261 -5.4172,-3.89854 -0.66835,-1.38915 -2.51195,-5.63092 -10.35482,-23.8245 -0.69994,-1.62368 -1.5818,-3.5875 -1.95969,-4.36404 l -0.68709,-1.41189 -4.28754,-0.0703 c -3.88574,-0.0637 -4.31021,-0.0276 -4.52953,0.38506 -0.1331,0.25047 -2.449893,5.96436 -5.148439,12.69755 -6.606241,16.48335 -7.956974,19.32592 -9.483818,19.95836 -0.623404,0.25822 -1.962156,0.47474 -3.184135,0.51497 -0.395283,0.013 -0.449239,0.30769 -0.449239,2.45351 v 2.43873 h 8.59972 8.599721 z"
     id="path37"
     transform="scale(0.26458333)" /><path
     style="fill:#cdfccb;fill-opacity:1;stroke-width:0.04538"
     d="m 99.875743,131.28043 c -0.261828,-0.0759 -0.264093,-0.11653 -0.03898,-0.69898 0.113376,-0.29335 0.230677,-0.57684 0.260657,-0.62997 0.03,-0.0531 0.0579,-0.12724 0.062,-0.16468 0.008,-0.0699 2.09101,-5.47735 2.14177,-5.55905 0.0155,-0.025 0.0314,-0.0658 0.0354,-0.0908 0.0158,-0.0998 0.55634,-1.46397 0.64707,-1.63301 0.0534,-0.0995 0.0971,-0.21921 0.0971,-0.2661 0,-0.0469 0.0377,-0.15951 0.0838,-0.25026 0.0461,-0.0908 0.11968,-0.27732 0.16357,-0.4146 0.14509,-0.45373 0.71508,-1.79184 0.77902,-1.8288 0.0345,-0.02 0.0628,-0.0818 0.0628,-0.13739 0,-0.12762 0.25094,-0.48433 0.34072,-0.48433 0.0318,0 0.18196,0.37714 0.16808,0.4222 -0.006,0.02 0.0153,0.063 0.0477,0.0954 0.0324,0.0324 0.11794,0.21003 0.18999,0.39464 0.0721,0.18462 0.19903,0.48313 0.28217,0.66337 0.0831,0.18025 0.15117,0.35485 0.15117,0.388 0,0.0332 0.0184,0.0797 0.0409,0.1034 0.0225,0.0237 0.33058,0.72721 0.68467,1.56334 0.3541,0.83613 0.67264,1.58149 0.70788,1.65637 0.1706,0.36255 0.42716,0.99879 0.42716,1.05934 0,0.0374 0.0271,0.10025 0.0603,0.13966 0.0762,0.0905 0.48517,1.04788 0.48463,1.1345 -2.2e-4,0.0355 0.0267,0.0967 0.0599,0.13614 0.0762,0.0905 0.48517,1.04788 0.48463,1.1345 -2.2e-4,0.0355 0.0268,0.0967 0.0599,0.13614 0.0731,0.0868 0.48519,1.04624 0.48463,1.12832 -2.2e-4,0.0321 0.0289,0.10355 0.0647,0.15883 0.0358,0.0553 0.23815,0.50383 0.44962,0.99677 l 0.38451,0.89625 -4.86284,-0.004 c -2.75637,-0.002 -4.924244,-0.0219 -5.004607,-0.0452 z"
     id="path38"
     transform="scale(0.26458333)" /><path
     style="fill:#cdfccb;fill-opacity:1;stroke-width:0.18152"
     d="m 131.87428,209.34764 c -3.64531,-0.61853 -8.30495,-2.18906 -12.2526,-4.12973 -5.30323,-2.60708 -9.71746,-5.77886 -14.40838,-10.35291 -6.300105,-6.14315 -11.578073,-13.39828 -16.310837,-22.421 -1.097224,-2.09179 -3.678822,-7.6359 -3.678822,-7.90046 0,-0.0475 10.904814,-0.0864 24.232919,-0.0864 h 24.23292 v 22.50848 22.50848 l -0.6807,-0.0247 c -0.37438,-0.0136 -0.88491,-0.0594 -1.1345,-0.10172 z"
     id="path39"
     transform="scale(0.26458333)" /><path
     style="fill:#cdfccb;fill-opacity:1;stroke-width:0.18152"
     d="m 142.0394,187.14712 v -22.69 h 26.86496 26.86496 v 22.69 22.69 h -0.87607 c -2.36052,0 -7.79875,-0.80189 -11.19501,-1.65075 -0.79869,-0.19962 -3.24921,-0.92777 -5.4456,-1.61812 -6.45058,-2.02746 -7.16249,-2.19615 -9.73399,-2.30648 -2.90785,-0.12475 -3.65739,0.0344 -10.05804,2.13552 -2.69906,0.88601 -5.92558,1.85984 -7.17004,2.16405 -2.61787,0.63994 -6.69605,1.27337 -8.20743,1.2748 l -1.04374,9.8e-4 z"
     id="path40"
     transform="scale(0.26458333)" /><path
     style="fill:#cdfccb;fill-opacity:1;stroke-width:0.18152"
     d="m 204.11924,186.84616 v -22.38904 h 24.04691 24.04691 l -0.16075,0.40842 c -0.49214,1.2504 -2.74078,5.99562 -3.80629,8.03226 -2.65774,5.0801 -6.17986,10.5224 -9.57423,14.79388 -2.28838,2.87971 -8.09651,8.75971 -10.68024,10.81241 -4.18278,3.32308 -9.33969,6.33769 -13.88871,8.119 -2.78142,1.08915 -4.27144,1.51564 -7.37956,2.11226 l -2.60404,0.49985 z"
     id="path41"
     transform="scale(0.26458333)" /><path
     style="fill:#cdfccb;fill-opacity:1;stroke-width:0.18152"
     d="m 204.11924,128.78844 v -27.31876 h 29.02617 29.02616 l 0.11021,0.86222 c 0.4816,3.76776 0.61109,11.64409 0.28212,17.16066 -0.70941,11.89621 -2.7569,22.92434 -6.35658,34.23757 l -0.75635,2.37707 h -25.66586 -25.66587 z m 46.10608,11.04499 v -8.46842 l -2.0421,0.11767 c -1.12315,0.0647 -2.37678,0.11804 -2.78582,0.11849 l -0.74373,8.3e-4 -0.11739,1.95134 c -0.0646,1.07324 -0.27265,2.6865 -0.46239,3.58502 -0.7031,3.32949 -1.50857,4.61228 -3.45704,5.50567 -0.92488,0.42406 -1.3025,0.47455 -4.45933,0.59621 -1.89688,0.0731 -4.45154,0.13913 -5.67702,0.14674 l -2.22813,0.0138 0.0499,-13.3871 c 0.0457,-12.26001 0.0762,-13.43511 0.36205,-13.95736 0.43777,-0.79978 1.15371,-1.00778 3.81743,-1.10909 l 2.31438,-0.088 -0.001,-0.93151 c -5.9e-4,-0.51234 -0.0536,-1.60604 -0.11777,-2.43045 l -0.11668,-1.49894 -11.00033,0.0468 -11.00033,0.0468 -0.0505,2.38891 -0.0505,2.38891 2.18424,0.13036 c 1.41902,0.0847 2.39056,0.23347 2.77313,0.42465 1.17309,0.58624 1.13386,0.11128 1.13386,13.72677 0,9.65005 -0.0518,12.51469 -0.23759,13.12855 -0.33403,1.10387 -0.89155,1.30229 -3.65926,1.30229 h -2.18407 v 2.35976 2.35976 h 18.87808 18.87808 z"
     id="path42"
     transform="scale(0.26458333)" /></svg>
